<svg width="1em" height="1em" viewBox="0 0 16 16" xmlns="http://www.w3.org/2000/svg" xmlns:xlink="http://www.w3.org/1999/xlink" fill="currentColor" overflow="hidden"><path d="M12 1 4 1C2.34315 1 1 2.34315 1 4L1 12C1 13.6569 2.34315 15 4 15L12 15C13.6569 15 15 13.6569 15 12L15 4C15 2.34315 13.6569 1 12 1ZM4 0C1.79086 0 0 1.79086 8.88178e-16 4L0 12C0 14.2091 1.79086 16 4 16L12 16C14.2091 16 16 14.2091 16 12L16 4C16 1.79086 14.2091 0 12 0L4 0Z" fill-rule="evenodd"/><path d="M8.537 12 5.062 12 5.062 3.545 8.461 3.545C10.048 3.545 11.004 4.354 11.004 5.655 11.004 6.539 10.354 7.33 9.521 7.471L9.521 7.571C10.664 7.688 11.425 8.502 11.425 9.604 11.425 11.092 10.341 12 8.537 12ZM6.375 4.658 6.375 7.125 7.933 7.125C9.093 7.125 9.697 6.697 9.697 5.895 9.697 5.115 9.128 4.658 8.156 4.658L6.375 4.658ZM8.273 10.887 6.375 10.887 6.375 8.162 8.197 8.162C9.433 8.162 10.084 8.625 10.084 9.51 10.084 10.406 9.457 10.887 8.273 10.887Z" fill-rule="evenodd"/></svg>